/* XPM */
static char *e4f7f83afe2742e1fe4b0a21c277bdc71dDEmQqpVjuwWIe6[] = {
/* columns rows colors chars-per-pixel */
"64 64 61 1 ",
"  c black",
". c #040101",
"X c #050404",
"o c #080301",
"O c #0A0401",
"+ c #0E0502",
"@ c #120702",
"# c #130802",
"$ c #140802",
"% c #180903",
"& c #1F0C04",
"* c #200D04",
"= c #270F04",
"- c #2B1105",
"; c #2D1205",
": c #301305",
"> c #331405",
", c #361606",
"< c #381707",
"1 c #371608",
"2 c #3B1808",
"3 c #411A07",
"4 c #471C07",
"5 c #431B08",
"6 c #441B08",
"7 c #481D08",
"8 c #4E1F09",
"9 c #4E2009",
"0 c #51210A",
"q c #55220A",
"w c #5A240A",
"e c #5F270B",
"r c #5F270D",
"t c #62270B",
"y c #61280B",
"u c #65290B",
"i c #62280C",
"p c #672A0C",
"a c #692B0C",
"s c #6C2B0D",
"d c #6F2D0E",
"f c #702D0D",
"g c #742F0D",
"h c #77300D",
"j c #79310D",
"k c #7D330E",
"l c #7E340F",
"z c #83350F",
"x c #85360F",
"c c #8A380F",
"v c #863710",
"b c #8F3A10",
"n c #923B10",
"m c #963D10",
"M c #993E11",
"N c #9C3F11",
"B c #9C4010",
"V c #A24211",
"C c #A54312",
"Z c #A64412",
"A c #A84512",
/* pixels */
"                                                                ",
"                                X                             X ",
"   +7rrrrrrrrrrrrrrrrrrrrrrrr3o   *qrrrrrrrrrrrrrrrrrrrrrrrw-   ",
"   xCCCCCCCCCCCCCCCCCCCCCCCCCCf  =VCCCCCCCCCCCCCCCCCCCCCCCCCC>  ",
"  &ACZZZZZZZZZZZZZZZZZZZZZZZZCA+ yCCZZZZZZZZZZZZZZZZZZZZZZZCCd  ",
"  =ACZZZZZZZZZZZZZZZZZZZZZZZZZA$ pCZZZZZZZZZZZZZZZZZZZZZZZZZCh  ",
"  =ACZZZZZZZZZZZZZZZZZZZZZZZZZA$ pCZZZZZZZZZZZZZZZZZZZZZZZZZCh  ",
"  =ACZZZZZZZZZZZZZZZZZZZZZZZZZA$ pCZZZZZZZZZZZZZZZZZZZZZZZZZCh  ",
"  =ACZZZZZZZZZZZZZZZZZZZZZZZZZA$ pCZZZZZZZZZZZZZZZZZZZZZZZZZCh  ",
"  =ACZZZZZZZZZZZZZZZZZZZZZZZZZA$ pCZZZZZZZZZZZZZZZZZZZZZZZZZCh  ",
"  =ACZZZZZZZZZZZZZZZZZZZZZZZZZA$ pCZZZZZZZZZZZZZZZZZZZZZZZZZCh  ",
"  =ACZZZZZZZZZZZZZZZZZZZZZZZZZA$ pCZZZZZZZZZZZZZZZZZZZZZZZZZCh  ",
"  =ACZZZZZZZZZZZZZZZZZZZZZZZZZA$ pCZZZZZZZZZZZZZZZZZZZZZZZZZCh  ",
"  =ACZZZZZZZZZZZZZZZZZZZZZZZZZA$ pCZZZZZZZZZZZZZZZZZZZZZZZZZCh  ",
"  =ACZZZZZZZZZZZZZZZZZZZZZZZZZA$ pCZZZZZZZZZZZZZZZZZZZZZZZZZCh  ",
"  =ACZZZZZZZZZZZZZZZZZZZZZZZZZA$ pCZZZZZZZZZZZZZZZZZZZZZZZZZCh  ",
"  =ACZZZZZZZZZZZZZZZZZZZZZZZZZA$ pCZZZZZZZZZZZZZZZZZZZZZZZZZCh  ",
"  =ACZZZZZZZZZZZZZZZZZZZZZZZZZA# pCZZZZZZZZZZZZZZZZZZZZZZZZZCg  ",
"  %ZCCZZZZZZZZZZZZZZZZZZZZZZCCVo wCCZZZZZZZZZZZZZZZZZZZZZZZCCy  ",
"   pCCZZZZZZZZZZZZZZZZZZZZZZCV9  @nCCZZZZZZZZZZZZZZZZZZZZZZCM&  ",
"    &<<<<<<<<<<<<<<<<<<<<<<<1%    .;<<<<<<<<<<<<<<<<<<<<<<<>O   ",
"                                                                ",
"    *,,,,,,,,:+    $>,,,,,,,,,,,,,,,,,,,,,,,-.    *,,,,,,,,;+   ",
"   pCCCCCCCCCCB*  ,VCCCCCCCCCCCCCCCCCCCCCCCCCz   sCCCCCCCCCCN%  ",
"  @CCZZZZZZZZCCf  cCCZZZZZZZZZZZZZZZZZZZZZZZCZ> %CCCZZZZZZZCCw  ",
"  *ACZZZZZZZZZCl .mCZZZZZZZZZZZZZZZZZZZZZZZZZC4 =CCZZZZZZZZZCd  ",
"  *ACZZZZZZZZZCl .mZZZZZZZZZZZZZZZZZZZZZZZZZZZ4 =CZZZZZZZZZZCd  ",
"  *ACZZZZZZZZZCl .mZZZZZZZZZZZZZZZZZZZZZZZZZZZ4 =CZZZZZZZZZZCd  ",
"  *ACZZZZZZZZZCl .mZZZZZZZZZZZZZZZZZZZZZZZZZZZ4 =CZZZZZZZZZZCd  ",
"  *ACZZZZZZZZZCl .mZZZZZZZZZZZZZZZZZZZZZZZZZZZ4 =CZZZZZZZZZZCd  ",
"  *ACZZZZZZZZZCl .mZZZZZZZZZZZZZZZZZZZZZZZZZZZ4 =CZZZZZZZZZZCd  ",
"  *ACZZZZZZZZZCl .mZZZZZZZZZZZZZZZZZZZZZZZZZZZ4 =CZZZZZZZZZZCd  ",
"  *ACZZZZZZZZZCl .mZZZZZZZZZZZZZZZZZZZZZZZZZZZ4 =CZZZZZZZZZZCd  ",
"  *ACZZZZZZZZZCl .mZZZZZZZZZZZZZZZZZZZZZZZZZZZ4 =CZZZZZZZZZZCd  ",
"  *ACZZZZZZZZZCl .mZZZZZZZZZZZZZZZZZZZZZZZZZZZ4 =CZZZZZZZZZZCd  ",
"  *ACZZZZZZZZZCl .mZZZZZZZZZZZZZZZZZZZZZZZZZZZ4 =CZZZZZZZZZZCd  ",
"  *ACZZZZZZZZZCl .mZZZZZZZZZZZZZZZZZZZZZZZZZZZ4 =CZZZZZZZZZZCd  ",
"  *ACZZZZZZZZZCl .mZZZZZZZZZZZZZZZZZZZZZZZZZZC4 =CZZZZZZZZZZCd  ",
"  %ZCZZZZZZZZZCj  bCZZZZZZZZZZZZZZZZZZZZZZZZZC2 &CCZZZZZZZZCCi  ",
"   kCCCCCCCCCCC<  0CCCCCCCCCCCCCCCCCCCCCCCCCCmo .cCCCCCCCCCCV;  ",
"   o7upppppppe-    <tpppppppuaaaaaaupppppppuq@   O8uppppppue=   ",
"                                                              X ",
"    O#########$$$$$$#########.     +########$$$$$$$########@    ",
"   6BCCCCCCCCCCCCCCCCCCCCCCCCM>  .gVCCCCCCCCCCCCCCCCCCCCCCCVz+  ",
"  +VCCZZZZZZCCCCCCCCCZZZZZZCCCM. 0CCZZZZZZZCCCCCCCCCZZZZZCCCCq  ",
"  =ACZZZZZZZZZZZZZZZZZZZZZZZZCA@ pCZZZZZZZZZZZZZZZZZZZZZZZZZCg  ",
"  =ACZZZZZZZZZZZZZZZZZZZZZZZZZA$ pCZZZZZZZZZZZZZZZZZZZZZZZZZCh  ",
"  =ACZZZZZZZZZZZZZZZZZZZZZZZZZA$ pCZZZZZZZZZZZZZZZZZZZZZZZZZCh  ",
"  =ACZZZZZZZZZZZZZZZZZZZZZZZZZA$ pCZZZZZZZZZZZZZZZZZZZZZZZZZCh  ",
"  =ACZZZZZZZZZZZZZZZZZZZZZZZZZA$ pCZZZZZZZZZZZZZZZZZZZZZZZZZCh  ",
"  =ACZZZZZZZZZZZZZZZZZZZZZZZZZA$ pCZZZZZZZZZZZZZZZZZZZZZZZZZCh  ",
"  =ACZZZZZZZZZZZZZZZZZZZZZZZZZA$ pCZZZZZZZZZZZZZZZZZZZZZZZZZCh  ",
"  =ACZZZZZZZZZZZZZZZZZZZZZZZZZA$ pCZZZZZZZZZZZZZZZZZZZZZZZZZCh  ",
"  =ACZZZZZZZZZZZZZZZZZZZZZZZZZA$ pCZZZZZZZZZZZZZZZZZZZZZZZZZCh  ",
"  =ACZZZZZZZZZZZZZZZZZZZZZZZZZA$ pCZZZZZZZZZZZZZZZZZZZZZZZZZCh  ",
"  =ACZZZZZZZZZZZZZZZZZZZZZZZZZA$ pCZZZZZZZZZZZZZZZZZZZZZZZZZCh  ",
"  =ACZZZZZZZZZZZZZZZZZZZZZZZZZA$ pCZZZZZZZZZZZZZZZZZZZZZZZZZCh  ",
"  =ACZZZZZZZZZZZZZZZZZZZZZZZZZA$ pCZZZZZZZZZZZZZZZZZZZZZZZZZCh  ",
"  *ACZZZZZZZZZZZZZZZZZZZZZZZZCA@ pCZZZZZZZZZZZZZZZZZZZZZZZZCCf  ",
"  .mCCZZZZZZZZZZZZZZZZZZZZZCCCx  <CCCCCCCCCCCCCCCCCCCCCCCCCCC5  ",
"   *hvvvvvvvvvvvvvvvvvvvvvvvxf$   5kxxxxxxxxxxxxvvvvvvvvvvvz0   ",
"                                                                ",
"                                                                ",
"                                                                "
};
