/* XPM */
static char *_2238537b74f42149b98115dafb66c726cUhrSyL9qeqLdHZ[] = {
/* columns rows colors chars-per-pixel */
"64 64 64 1 ",
"  c #26B63F",
". c #27B83E",
"X c #2ABC3C",
"o c #2EC239",
"O c #30C437",
"+ c #30C438",
"@ c #0E964F",
"# c #0E9A4F",
"$ c #129C4D",
"% c #028757",
"& c #048B56",
"* c #088E53",
"= c #018559",
"- c #048B5C",
"; c #088F5A",
": c #079254",
"> c #0A9452",
", c #0B9B51",
"< c #07915A",
"1 c #09935B",
"2 c #119A51",
"3 c #0EA24E",
"4 c #1AA647",
"5 c #1EAB45",
"6 c #1CA847",
"7 c #1FAD44",
"8 c #17A349",
"9 c #15A04B",
"0 c #16A04A",
"q c #11A74D",
"w c #18A348",
"e c #18A448",
"r c #13AC4B",
"t c #14AE4B",
"y c #13AB4C",
"u c #14AE4C",
"i c #1CA848",
"p c #16B349",
"a c #17B449",
"s c #0EA150",
"d c #10A350",
"f c #20AE43",
"g c #21AF43",
"h c #21B042",
"j c #24B340",
"k c #25B540",
"l c #068F60",
"z c #079161",
"x c #099262",
"c c #0A9563",
"v c #0A9564",
"b c #0B9765",
"n c #0D9A65",
"m c #0C9966",
"M c #0E9B68",
"N c #0E9E69",
"B c #109F6A",
"V c #10A06B",
"C c #12A36C",
"Z c #13A56E",
"A c #14A76F",
"S c #14A86F",
"D c #15A970",
"F c #17AC72",
/* pixels */
"1--=&&v:rap==&ypp&kh$=lNM===&*X0&t&,1-==:-z,pad==,upq>X5*=vZl===",
"vFA-hX$&3pp=0*>pq@j$&=-NN=&qp:oX@%=&ADN&oh::rad&e%qa>77@%=zZx=>r",
"-Dl&X+o$=:t=hX$>:%mMc-$@-,pap&$&=$X0mZ=$++ *%,s&+ *3%-Vmx=e&-ypa",
"&1=>5@=&>=-=f.$=&$cDC=Xof*>tp-vv%0X4<&=5w*=:&=-&o7*=:>VDv:oo0&3p",
",py,==>Xf===*-=$XX-C-:oX5>=%3-Zm%%&:tty:=%eo>===:=%7o0xm=eo w&=:",
"&pp:@$0  xN=CS=%$ ,,&*:%=@0==&--,t:=3ay=e>5X$mvxAN=&50s>%>&=%5&=",
"=y>:X ==&1V=xV=,==,aa3=&4of=-X#=3py&&t&4+$==&Nx=Vx::==yaa>%& +>=",
"=&*X+o:>t>-0>-%py&%pr%54:0emZ>::,:===&0o+h=3t=<0&=,p3%,a,& :@4,C",
":c&4o+5=,>&70%:p3&=q&woX%=:<N=yq=*$0=m>h+o&%y=: :=qt,=%3% +w=%,c",
"=ZC=%$7%=$h=%3%%====>o+o>,p>=&33&k+elDv=*50=&50=,>:==%==7++X%qp=",
"-DFV==&=$oX=3a&$7k*N1>7o7=:&$%f0*&h&NFDx=%%%h+e%pq%4h5-B&$ko@=,*",
"mDAN-=p3:hX=::&:oh-DD-=&$=&hX= X&===SDZm=,t,>o5=>:=e+@cFV==:#=>X",
"->:%$%yp,%5=4Xe=$:xDFA-%>%$oX=$&%y%=1:&=0&pt:*w=ok:=0%VFFN=:&% +",
"=rp:Xe,,>===$X*&==mNmz&%tt,0ocv=,aq=:a3$o:y:&===h5%:==CNv-->py>h",
"%,>$oo&%o$==&&=y,=&33&h*yp&=>Sv=ypa3=y% o7=$X&==*=&p&=>3,*7%aq=%",
"&%=::==*X *vV-&pa,=yy:oh,&0%=v-=&:>>&%=>&==0X5-BN=3at%&p,eo#,>@=",
"0 4&-mC-&=%mB=,ytt:>&e 5&%o7===&yur&kh$=xVm%&=&Az=qrtq%,%kh$=0o$",
"X4*==vA-=,p,-=-&:&&&====-*he&=e&>py$k$%=-VV=&quc==-&:=*=====-0f$",
"-Nv-*0&&taa>%=qaa>fo5&-CA===:=kX$,>%mmx=$>->pat-%&par&oX$=vDm==%",
":SD-0+X$&qa>$5%3p&i:%==-V=>yp=  @=&$cFV=.of:>pt-h$&p,$0&===cN%,p",
">Nz= ok$%=,>$+X&:=xDCx@k*&rap=:==$o -Z-*oX7>=-,=.oe&&=BAB-fe%,pa",
"$,:&$&=&7===$h:=:5:SZ=7+oe%,t-BZ-%0f,,&>>%=$$===he&%$5xDm&X+X>&q",
"&par%&$Xo&==---:Xo:m-%Xh$&&=&=cV%,=%,ap3=&5o7===&-=0o =v=$X5@&&=",
"=qp:>.&$71DlmFl=%w0y,>%==$ %=$*-&pr&%py%50*0eNZ-DZ==:e3q,:==&74=",
"=>,:X+>=&>M==V=3>=%paq%>$oX&-50%>p3&=3&e+ =%:<m=-m%y&=>ap,**fo7-",
"==%X++7%rq=$7&=rp3=qr%4X&&@1D-&q%%====$o++:>p>=h0=:ap:%p3&.e%*>m",
"exm&eXX&=,>2$&%r,%=:&0o+@%,,c=3p&$5 *N->fo7=::>4:%,y>==,% +X=&3:",
"&NFv=%$*=$o*%r&==&&-&ho+7%q3==,>%:of-DS-=&0=&hk=:q%=%*%-$X+o$:t:",
"=SFDc=,%&X+>>p3@XX$mV-:5X&=&e%5X4=>:cFFA-%>=0+X=yp&5XX-Zx&$ h=%>",
"-ZNc-=3a3>X2&>&=5X=ZFN==&&&ho%$X*&==NVmx-%pp,0X%@:%&X$-DDx==*=>X",
"=,3>$0>p,=&>:o &=:-DFDc=3>* o%&&=y,=%3s%7*yt&=>-4ow=*%mFFA-&3:$X",
"=,p:ko>>$*==&h&&:=-c--&&3ar&hmZ-:pp>=yy*o7,&0===$5=,%=cx-=:=pp3>",
",%,*Xh@=hX*=--=3p&=yt,55,t:==vN=,rtr&>&e.7%&o5==-=%p3=&pr:X:qq%=",
"--======f5>xDx%par%>r&Xo#%e@=--===--&==-===:he&VA=,aa,=q,$o :% &",
">Xf>=mA-===<C=%,#3,=::4$&= o@==-ypp:fXe&-VC===&mv=>,33&&=$0@=:o ",
"75>==xZl%,ts-=:>,&>:-==-l=w2&=$>&tt:k0&==mA=&3p<=&:>>=$*===--:0>",
"&Nmx%5:-yaas&%qap&XX0%lAC==&#=4o4:,%cNv->0-:paa&&&pa3$+ >=mFv==:",
"#CFc@ooe%3ps57%qq:2&==%-m%3pp-4X$=%$&FA-5oX@&ra&X$&p>$>===-xv:yp",
"0cv=5o 0&=:,5+h&&%vDZ-4 :&ypp=*-=>Xo&V-=XXf$%=,&oo$&=%ZDV-X5&,pa",
"0s>&@&=&5*==00&%$k;Dm=X+o0=,t-NZ-=#h,,::@%=>4===h>=&5evD-:o+X:%q",
"%yap:&:Xo>==-x-@XX&c=:.w*%&=%=-A=s%=&apy=&eo.==-xx=4o5-l=eh$&%&=",
"=,a,*X*@4,ZvND=%=$#t3,==&7h==$@-=tp:=rt%$7&$5xA-SN=%*@ry3:==>X$=",
"=&3&.+0=&,v-=m=y,=&pp,&$eX.-x05&&p3:=,:$oo&=:>m=-z>y&=,ap&$*ho0z",
"===h++.%qt=$f%%pps=y3&  ==&xS==y%%====:o++0:p#=k$=,ap&&p:@o$=&&N",
"7-V-$ko>=>:0::&3:==:&h+o:&q,z=,a>>7 @vv*4XX=%>@0&&,,%==::X+.=,y&",
"@vFV==:>=$X$&p%=&>*l*ho+4%3,==:>&&..%ZDx=&$&%5X&,3=%*$=l$.+o::r%",
"=CFFN=:&% +e,t,$oX*CV=&4.==:j=$oh%&@-FFDl=,%>oo*yr% oh-Dx=>h5=%$",
"-VMc-&>ay>hi@$*%57-DFN==&=:Xo=*X>&%=cVmx&=yp3@X&e@&&X:cFDz==&=4o",
"=,q,:f&p3=%>$+7==&xFDZl%q,: o-%*=3y==33:e$,p>=:&ho@=&=VFDV=:q>$X",
"%&p,5+$,>#==*4=,:=<1-=@%yay&hcZx%pa3=,t%XX>:w%==0@=3==c-==>%ap,>",
"3=,&hh$=0o#=--=rp&=tp: e,q&==-Z=:yrr>&># 7*%X &--=:a3=:pr:X*r,&=",
"&&==%=-=e5$vD-:par%,3>oo>%h@==l=-&:-:==%==-&7e*ZV=qap,=y:5Oh%: &",
"4of&-CA-==&1m=&,,,>%%>$*==XX:==&pat&XX0=xSN===>m-=>,,,&&=$@&=$oh",
"f$%==lV-:qp>=&qru&fh$=-NM=&&&=5@:p3$5>===mN%,ru-=>yuq*X5:=xVz=&&",
"-ZBx:f:&raa>$*:pr> 0*=-NC=&3t=ko4::=MCN-w0->pau&4%3a,7f$&=lZv=>y",
">AS-4+o0%3p>5o$>,%cmx-#>->pap=hf&=:exFN=X+X:&yu&+ &3&=Nvl=0&-qaa",
">v-%  4>&=::5X$=%$xDZ-kof:>tp=&-=$o =N=>Xh$&%=>&oh:=*>NFm*oo0&3p",
"$y,>:%=>.===*%=$XX-Z-&oo7@=%,-CA==>433,>&==4w===:==5o4zN=$+X4&=:",
"=tar%*$oo&--NS-=0 ,,&:#==:w===-N%3%=>ap,&&ho7=-lZV=&7e,:%$*==0:=",
"=3p&$X%:$<D-zC=,%%>pa3=&0ok==e$=&pp:=pq%he%@$mC=Nv&>=%qap>%&ho$=",
"=::$o+$=>,v$:-%pr&%pt%05*$4mZe@&>r,%=,%f+X=&,:m$--,p3=>a3&k:>4$V",
"&=-Xo+h%yq=e5%&pq:=3:$oX%=&<N=&y%==&=-$X+O@:t>& $=3t3%%q%h+5=%>c",
"0cV-@hX*=:$*%q&&===-:o+o$:p,==3p:0 X&Vx&0 h=&:0&:,:%====4++X%3p%",
"=VFN==&&%7o:,a&$5 >Nx:5oh=&:#=#:%&X5-FDz=%:=:X =ty%efh-B-$ o$=,&"
};
