/* XPM */
static char *df2cb4b352704b1befccc259cf9fe9d1JTQziq1f2AO4Ey0L[] = {
/* columns rows colors chars-per-pixel */
"64 64 52 1 ",
"  c #240202",
". c #2C0303",
"X c #310404",
"o c #3B0404",
"O c #440404",
"+ c #4A0505",
"@ c #530606",
"# c #5B0606",
"$ c #610707",
"% c #650808",
"& c #6F0808",
"* c #720808",
"= c #7D0909",
"- c #850909",
"; c #8B0A0A",
": c #950B0B",
"> c #9C0B0B",
", c #A40C0C",
"< c #AC0C0C",
"1 c #B40D0D",
"2 c #BB0D0D",
"3 c #A31010",
"4 c #AA1010",
"5 c #B11010",
"6 c #BB1010",
"7 c #C30E0E",
"8 c #C40E0E",
"9 c #CA0E0E",
"0 c #CF0E0E",
"q c #D30F0F",
"w c #D40E0E",
"e c #D90F0F",
"r c #DC0F0F",
"t c #C21111",
"y c #CC1212",
"u c #D31010",
"i c #D41111",
"p c #DB1010",
"a c #DD1010",
"s c #E20F0F",
"d c #E40F0F",
"f c #E90F0F",
"g c #EF0F0F",
"h c #F10F0F",
"j c #E31010",
"k c #E61010",
"l c #E81010",
"z c #EC1010",
"x c #F01010",
"c c #F41111",
"v c #F81010",
"b c #FE1111",
/* pixels */
"ssdrfs<zcvvvccr,kssrsrrsssrx92ccvvvvc78lsrsrrjssrsz,rvvvvvvz,wkd",
"9bbbv<0bbbelbbv21vbbb8<ebbbz,lbbvqbbbz<kbbbf12vbbb71vbbljbbbq<cb",
"2bbbw<cbbz@=vbbf>rbbb1Xpbbv28bbb0X8bbb01vbbz+;vbbk,zbbb-@cbbv<0b",
"cbbx,rbbbz12cbbv8<cbbc0vbbs<xbbbw<0bbbx<ebbbwlbbb19bbbv21zbbbr,z",
"vvb8180998989q80w,qbbbbbbv128w709889q7q9<xbbbbbbr,79088098908w12",
"111>r<,:<,<><><98q,9888882<9<>:1,<><:72p12888888>0<<:,,,,<,,u1k:",
"rrr<qeqqqeq0qwqex21rrrraaw<sqw0we0qww0jz<qrrraar12aqw0ew0qewqlq<",
"bbbe<zxxxzzzxxxxd>jbbbvbbb82cxxxzlzxxzx72vbbbbbbx,sxxxxllxxxxz,s",
"kbbv18bbbk#&zbbc<7vbbr-cbbx<jbbb7+,bbbd,zbbv:0bbb01vbbv=@kbbb82v",
"<bbbf,kbbv:1bbbe>zbbb:Oqbbbq1cbbz=lbbb20bbbr@-vbbx<wbbb7>bbbl<lb",
"zcvzv72vbbvvbbc<9cvxxzlzcvzc<wbbbvbbbr<lvcxzzzxvzcw<xbbbvbbv17kv",
",<,210<0ssssss7<1<,>,,<,,<21q1dllllll<8<,:1><,<,12718llllllw,2,>",
"<2129l1<122222,282<172112120x,2222222,e21<271<2110j9,2222271<w21",
"lddrfs,zvvvvvbs>lddssssfddrx92vvvvvvv78zdsdsskddsdz,rvvvvvvx,elf",
"0bbbc<0bbbelbbv21vbbb01sbbbz,lbbvqbbbz<kbbbl17vvbv72vbbzabbbq<cb",
"2bbbw<xbbz#-vbbl>rbbb1oabbv28vbbqO8bbb02vbbz@:vbbd,lbbb-$vbbc<0b",
"cbbx,rbbbz12cbbb9<cbbcqvbbs<cbbbe<0bbbc<rbbbezbbb19bbbv2<zbbbr,x",
"bbb818q098099q0qw,qbbbbbbv128e899999w8w9<cbbbbbbr,70q88q08000w12",
"222>r,,:<><><><98q>2222221<9<>:1><><:72p1<121222:0<<:,,,,,,,q1k:",
"jjj<qeqqqw00qw0wx71jssjjje<jqq0ww90qq9rz,wjjjjjj12rqq0wq90wq9lq1",
"bbbe<zxgxzzlxxzxk>kbbbvbbb82cxzxzzzxxzx72vbbvbbbz,rxgxxzggczzz,d",
"jbbv28vbbk#*xbbc<7vbbr-xbbx<jbbb7+<bbbk,zbbv:0bbb91vbbb=@kbbb82v",
"<bbbl,fbbv:1bbbe>zbbv:O0bbbw1cbbz=zbbb19bbbe@-cbbc<wbbb7>bbbl,zb",
"kzclx72vbbvvbbc<8zclzkpkxxkz<wbbbcbbbr<jxzzlajzclxw<xbbvvbbv17jz",
",<<720<qdddddd7<1<<><,1,<<81q<9000000,8<,>1>1,<<27718ddddddq<7,,",
"<7120l1<111111>78211771<7170x>2777777>a111272<221qj0>111111<<w77",
"kddrls,zvvvvvvs,kdssssdddsrz77vbbbbbv77lssdrjkddsdz,rvvvvvvz,wfd",
"0bbvc<0bbbwlbbv21vbvv9<rbvvl,zbbc2vbbx<kbvbf12cbvv72vbblrbbbq<xb",
"2bbbw,cbbz@=vbbl>rbbb1.pbbv19bbb8 2bbbq1vbbz+;vbbd,zbbb-@cbbv<9b",
"cbbx,rbbbl<1cbbb9<cbbc0vbbr<cbbbe2qbbbc<rbbbwlbbv19bbbv1<zbbbr,z",
"vvv817q998989q90w,0ccccccc127w798778q7q91xvvvvvve,70q88088009w12",
"111>r,>;<><:<:<87q:<<<<<<,<9,::1><:<;71p1<111111:0<,:,,,>,>>q<k:",
"jjs<qwwq0eq0qeqex21dkkkkks<sqw0we9qww9sz,wjjjjjj22rqw0ew00eq0zq<",
"bbbe<zxxczkkxcxxk,dbbbcbbb87cxzxlllxxzx72vbbcbbbz,rcxxxkkzcxxz<s",
"lbbv18bbbk#*xbbv<8bbbe=xbbx<lbbb7#<bbbl,zbbb:qbbb91vbbb=#kbbb82b",
"<bbbl,kbbv:1bbbe,zbbb>+qbbbq1vbbk%jbbb20bbbr@-vbbx<wbbb7:bbbl<lb",
"kxczx72vbbcvbbx<9zczzkklxclz<rbbvzvbvr<lcxxzkkxczxq<xbbvcbbv22kc",
",<,210<0ssssrr7<1,>:,,1>,,71q1ajjjjjj,8<,:1><,<,12717sssssr0,2,>",
"<2129l1<111112>292117711217qx><111111>e21<271<2110j9,211112<<w22",
"ksdrfs<zvvvvvvj>kddssssdddrx92cvvvvvv78lsrjssjsdrdz,rvvvvvvz,edd",
"0bbbv<0bbbelbbv21vbbb8,ebbbz,lbbvqbbbx<kbbbl<2vbbb72vbbzsbbbq<cb",
"2bbbw<cbbx@-vbbl>rbbb1osbbv28vbb0o8bbb02vbbz@:vbbk,lbbb-#cbbc<0b",
"cbbx,rbbbz12cbbv8<cbbcwvbbr<xbbbw<0bbvx<abbbezbbb18bbbv21zbbbr,z",
"bbb818q099009w9qw,0bbbbbbv<78e800900w8w9<cbbbbbbr,80q89q09009w12",
"111>r<,:<,<>1><99q:212111<<0<>>1,<><:72e1<111111:01<>,,,,<,,q1k:",
"rrr<qeqqqeq0qwqwx71srsrrre<sww0we0qww0rz<qrrrrrr12rqqqew0qww0lq1",
"bbbe,xxzxzzzxxzzk>dbbbvbbb82cxgxzzzxzzx72vbbbbbbz,sxzxzzzxxzgg,k",
"jbbv18vbbl#*xbbc<7bbbe-cbbx<sbbb7+,bbbk,zbbv:0bbb91vbbv=#kbbb82b",
"<bbbl,kbbv:1bbbe>zbbv:o0bbbq1cbbz=lbbb19bbbe+-cbbx<wbbb7:bbbl<lb",
"xxvlc72bbbbbbbc,9xvzzczzcclx<wbbbbbbbr<kvczxxxzvlxw<xbbbbbbv17jx",
",<,210<qddsssd7<1<,>,,1,<<81q<rsssssr<8<,:1>1,<<12718ddssddq<7,>",
"<2120l1<222222,2821172112170x,2222222>r11<272<2210s0,222222<<w27",
"lddslj,zbbvbbbs,lkddssdlddsx82vbbbbbb78zdsdsklddddz,rbbbbbbx>eld",
"0vbvc<0bbbelbbv21cvbv9<rvvvl,lbbv9bbbx<kvvvf17vbvv72vbblrbbbq<xb",
"2bbbw,xbbz#-vbbl>rbbb<.pbbv29bbb0o8bbbq2vbbz+:vbbk,lbbb-#vbbc<9b",
"cbbx,rbbbl,1xbbb9<cbbcqvbbr<cbbbw<9bbbc<rbbbezbbb19bbbv1,lbbbr,z",
"vvv817q997989q9qw<qvvvvvvc122w28877808q91xvvvvvve,70q77088009w12",
"111>r,>:<><:<:<87q:111111<<9,>:1><:<:72p1<111111:0<,:,,,>,>,q1k:",
"jjs<qwqq0e000e0wx22lllllld<rqwqwe0qqe0jz,wjjjjjj12eqw0eq00ew9zq<",
"bbbe<zxxxzkkxcxxd,dbbvcbbb92ccxcljkccxc72vbbcvbbz<rcxxxkkzcxhz<s",
"kbbv18bbbk$*xbbc<8bbbe=xbbx<sbbb7+,bbbk,zbbv:0bbb91vbbb=#kbbb82v",
"<bbbl,kbbb>1bbbe,xbbb:+0bbbw<cbbx-xbbv10bbbe@-cbbc<ebbb8>bbbl,lb",
"jzclx72vbbcvbbx<9zxlzjpkzxll<wbbbcbbbe<kxzxkpazxzzq<xbbvcbbv27kx",
",<4t6y<yiiiiii6<5<,><,5,,<y5i1ajjjjjj<t<,>5>5,<<6tt1tiiiiiiy,6,3"
};
