/* XPM */
static char *_5a596aeae2546768f3d0539554bc2c2mzVINTzcmLOMZ2fn[] = {
/* columns rows colors chars-per-pixel */
"64 64 192 2 ",
"   c #1E3D36",
".  c #1C373D",
"X  c #1E3C39",
"o  c #223F2F",
"O  c #213D33",
"+  c #223D3C",
"@  c #1E403B",
"#  c #264B23",
"$  c #294F27",
"%  c #23452B",
"&  c #274B2F",
"*  c #2A4D2C",
"=  c #2D522C",
"-  c #254535",
";  c #264A34",
":  c #2A4C34",
">  c #24423C",
",  c #2A453E",
"<  c #264A3B",
"1  c #2B4B3C",
"2  c #324F3D",
"3  c #2C5234",
"4  c #2C533C",
"5  c #2E5B3B",
"6  c #335437",
"7  c #345B33",
"8  c #32543C",
"9  c #335A3C",
"0  c #396A27",
"q  c #3A6436",
"w  c #3A6A34",
"e  c #34623B",
"r  c #3B653B",
"t  c #1F3E42",
"y  c #243D42",
"u  c #2B3E45",
"i  c #263F49",
"p  c #2A3E4A",
"a  c #254343",
"s  c #2A4444",
"d  c #264B44",
"f  c #2C4C44",
"g  c #264349",
"h  c #2C444A",
"j  c #264849",
"k  c #2C4B4B",
"l  c #304C45",
"z  c #31454C",
"x  c #314D4C",
"c  c #2D5344",
"v  c #2F5841",
"b  c #2E524C",
"n  c #2C5A4D",
"m  c #325444",
"M  c #335B43",
"N  c #3A5D45",
"B  c #33534D",
"V  c #38574A",
"C  c #355B4C",
"Z  c #395D4D",
"A  c #2E4D52",
"S  c #2D4A55",
"D  c #334D52",
"F  c #384A54",
"G  c #374F59",
"H  c #2F5254",
"J  c #2F5058",
"K  c #345354",
"L  c #395455",
"P  c #355A54",
"I  c #3B5C55",
"U  c #35545A",
"Y  c #3A555A",
"T  c #365A5B",
"R  c #3C5B5C",
"E  c #366145",
"W  c #3A6245",
"Q  c #3E6B46",
"!  c #35634F",
"~  c #3B634C",
"^  c #3C6A4C",
"/  c #366356",
"(  c #3C6254",
")  c #3D6A53",
"_  c #3D625C",
"`  c #3E6B5B",
"'  c #365560",
"]  c #375B61",
"[  c #3C5D62",
"{  c #3F5968",
"}  c #3E6263",
"|  c #3E6965",
" . c #3E6469",
".. c #3D6A6B",
"X. c #405E56",
"o. c #40565C",
"O. c #415D5D",
"+. c #41634F",
"@. c #406A4F",
"#. c #437045",
"$. c #426456",
"%. c #426955",
"&. c #42635D",
"*. c #49655F",
"=. c #436A5D",
"-. c #4C6E5F",
";. c #46705D",
":. c #425E62",
">. c #436364",
",. c #496565",
"<. c #456A64",
"1. c #4A6B65",
"2. c #496867",
"3. c #4A6966",
"4. c #426369",
"5. c #436569",
"6. c #446569",
"7. c #466669",
"8. c #496669",
"9. c #49666A",
"0. c #46686A",
"q. c #456A6B",
"w. c #4D6A6A",
"e. c #496C6A",
"r. c #4D6C6B",
"t. c #496A6D",
"y. c #4B6B6C",
"u. c #4E6D6C",
"i. c #506E6D",
"p. c #467064",
"a. c #4C7365",
"s. c #4E7A66",
"d. c #47716C",
"f. c #4C726C",
"g. c #4D7A6C",
"h. c #527465",
"j. c #507867",
"k. c #52736D",
"l. c #537B6C",
"z. c #4A6771",
"x. c #466B71",
"c. c #4C6C72",
"v. c #516E72",
"b. c #4D7372",
"n. c #4A7577",
"m. c #4D7A75",
"M. c #4D7479",
"N. c #537274",
"B. c #537A74",
"V. c #597C71",
"C. c #527578",
"Z. c #547B7B",
"A. c #5A7C7B",
"S. c #607F7F",
"D. c #55817D",
"F. c #5C817D",
"G. c #547E81",
"H. c #587C81",
"J. c #5B8282",
"K. c #668785",
"L. c #628D87",
"P. c #638B8B",
"I. c #65918E",
"U. c #669092",
"Y. c #6A9790",
"T. c #8E9D9C",
"R. c #929E9F",
"E. c #93AC8B",
"W. c #8EA09E",
"Q. c #93A39D",
"!. c #97AB9C",
"~. c #9CB397",
"^. c #929EA1",
"/. c #95A4A1",
"(. c #9AAAA5",
"). c #9DADAC",
"_. c #9FB4A0",
"`. c #9EB1A9",
"'. c #9FAEB0",
"]. c #9FB0B3",
"[. c #A0AFAE",
"{. c #A2B8A6",
"}. c #A1B3AC",
"|. c #A4BAAD",
" X c #A3B2B3",
".X c #A5B9B2",
"XX c #AABDB3",
"oX c #AABBBB",
"OX c #ADC1BC",
"+X c #ADC0C0",
"@X c #B0C4C4",
"#X c #D2DADA",
/* pixels */
"[.&.R >.U U U f $.<.y.9.,.,.,.u.3.Y O.>.,.=.*.$.&._ $.$.Z =.y.>.:.>.7.7.>.>.>.>.:.L R R R ,.,.I R K @ k k c v b P ( | 5.5.3.3.,.",
" X&.R R Y U Y f I y.9.>.&.&.,.3.3.R O.>.3.*.$.$.>.&.=.=.C =.y.:.[ >.7.,.7.,.>.9.R Y [ [ >.,.,.&.:.U > k A b B P T <.d.y.y.y.3.,.",
"}.&.O.:.R R Y , X.3.,.>.&.,.,.w.3.O.,.9.,.,.3.3.<.<.p.;.C C >.>.>.7.7.7.q.7.5.7.R } 5.>.>.,.y.,.,.U X K U R R _ | e.e.q.y.w.u.r.",
" X>.O.O.>.:.R , &.3.,.,.>.,.w.,.I R ,.9.,.,.3.,.<.<.p.=.c c 7.9.>.5.7.y.5.5.5.>.[ [ [ [ >.9.y.>.>.U t R >.9.,.e.b.3.e.y.u.u.u.u.",
" XO.I >.w.:.:., $.,.>.O.,.r.,.R Y :.:.:.>.,.y.,.&.&.&._ f P 7.4.4.>.7.7.5.5.4.[ [ ] [ [ :.>.9.7.>.R t ] 9.,.*.<.f.y.y.u.u.r.i.y.",
" XR L &.,.:.:.> I >.>.>.,.>.R Y :.:.:.y.9.9.w.,.>.&.<.P > B 7.[ 5.q.q.y.q.7.>.[ >.>.>.7.>.>.9.9.y.>.t R 9.,.=.*.r.r.w.w.w.u.u.>.",
"}.X.Y X.&.O.:.> I ,.,.,.9.:.{ :.:.:.9.9.9.y.y.w.3.&.<._ > K >.5.q.y.q.y.q.7.y.4.4.5.q.x.>.R 7.7.c.4.t >.y.,.*.,.r.i.i.w.9.y.y.,.",
" XO.L I ,.,.I   I ,.,.9.9.{ { { :.:.9.y.y.v.v.v.y.>.Y k a D 9.z.9.c.y.9.y.9.7.5.5.5.q.e.>.Y :.>.z.4.g c.y.,.,.,.w.r.w.,.>.,.,.:.",
").U m B I L 1 1 f f K U D Y G Y Y Y R Y Y :.9.w.i.,.K f < B 4.9.9.>.:.Y :.7.7.7.7.q.y.c.:.U R 9.z.[ g c.9.O.:.O.X.&.&.X.X.O.O.R ",
"Q.: 7 9 1 ; % & : O > + X + + y + > s > > X y s f x x , 9 4 P Y L x D D h k c b b k L L k k B L K g g D D z z l m m 8 m , 1 f , ",
"}.@.Q W m +.$.$.+.Z I 3.r.,.3.u.B : 6 = 7 = 8 3 9 8 8 7 w 3 : , 1 1 l + . s m 9 3 9 4 4 C B d s B R 7.9.,.,.k.r.=.W M j.l.a.r.3.",
"oXc.f.y.R 9.v.N.k.k.i.N.A.A.F.S.>.o : % c C C ~ %.( ~ W Q W ~ Z V m C h y K I c M M Z Z ( =.I L ,.N.c.v.k.k.a.3.=.~ M F.J.d.<.b.",
" X>.>.>.,.O.R 9.>.,.>.,.,.w.u.K.,.o 1 < P ( ~ ( >.,.$.%.=.=.=.*.I I L h y Y I Z M I $.$.*.3.<.3.v.v.v.N.k.k.-.*.$.W 1 R >.R Y ,.",
" X7.>.,.w.,.R ,.,.,.,.,.,.,.3.K.C.O - c / ( ) ( ,.,.*.$.( &.$.$.I I B z y Y P Z V O.,.$.&.<.b.N.N.v.v.N.N.k.3.,.$.W 1 U _ T R >.",
" X>.,.9.w.,.,.,.,.9.y.,.>.9.,.A.7.- < B T ( ~ ( >.,.=.( I &.$.O.&.I K z y O.I ( ~ >.3.3.r.N.b.N.N.v.N.N.C.N.3.,.*.N ; U _ T Y O.",
" X5.5.9.9.7.>.R ,.9.9.9.9.,.,.Z.[ + f B Y K P _ &.&.&._ &.,.,.>.,.O.X.h y O.&.$.$.,.y.y.u.c.c.b.N.v.N.v.N.v.,.:.O.V 1 B R P Y &.",
" Xq.5.5.,.,.7.R >.,.,.,.,.,.>.,.Y > z D Y R &.&.>.&.&._ &.,.9.>.>.X.L h y :.&.I I &.,.w.y.v.y.b.b.c.y.c.y.v.9.,.>.X.< K [ } 5.,.",
" X,.q.<.} >.5.,.&.,.y.y.,.3.R R K s D D Y Y Y Y Y U Y I &.>.o.:.:.R L z s o.R L B X.3.y.u.u.u.y.y.9.>.y.,.7.9.,.>.L > U } | 5.5.",
" X,.5.5._ _ _ *.I I ,.>.I Y K K R s D D U Y L Y Y Y O.O.O.O.L R >.X.L h y D K R I &.,.y.y.y.y.7.y.y.9.y.,.>.>.:.[ h + U } 5.q.} ",
" X5.7.} } <._ I &.x k K I x U >.9.y z z D Y Y Y L Y o.Y o.o.D Y O.L D s + s D R R ,.y.y.y.y.y.7.y.y.,.,.y.>.[ R D f s U >.q.q.} ",
" Xe.>.<._ T P I I > k Y Y U U >.9.y p z D D D Y U Y o.o.Y Y F D U K D y + h h Y >.y.7.y.q.7.5.>.y.y.,.>.>.R U D U P f k }  .} T ",
").Y U U U L x K x l h k D D D R *., s h h s p p D F D F z z u u h h s O f d s k U R Y R :.I O.Y :.&.X.R L K D k U B 1 s Y U U k ",
"Q.; : : 4 : * ; ; % - + s s l m N @.B D h l , s s h u u u u s s y + + f m c s s s h u g s > - : m f l l l s a a s < < s s a k c ",
"|.s.s.l.s.=.) <.b.3.X.:.,.3.h.l.s.k.Z.J.Z.N.$.Z s.f.u.u.7.} >.,.e.<.>.5.q.<.>.[ Y L U >.>.9.$.N W a.B.f.3.3.9.,.<.3.f.B.b.b.d.a.",
"@XH.n.M.n.p.=.d.x.>.>.7.>.&._ T 5.5.>.y.<.y.I ( F.N.v.7.,.>.&.&.>.>.7.z.x.q.q.c.[ R y.J.b.x.q.k &.Y.L.C.N.N.u.y.x.x.x.n.q.5.| | ",
"+Xy.5.} | | >.,.&.>.[ R I I P C I [ [ >.,.,.I I A.w.,.,.&.&.&._ >.>.4.7.7.,.7.q.5.R y.y.5.5.} f _ J.y.>.9.9.7.7.4.>.q.x.5.5.q.} ",
" X5.5.} } | _ 5.,.5.} R I &.( V ( >.>.,.>.&.L B N.w.,.,.>.O.&.&.>.>.5.5.7.y.y.y.q.5.y.5.5.5.:.m 3.Z.,.>.,.,.7.>.>.,.x.x.q.q.q.| ",
").R [ R } } } 5.,.} 5.I P _ I I &.,.>.,.>.X.z k r.,.,.,.&.O.&.,.>.>.} >.5.y.y.q.q.q.5.} } 5.>.C B.q.5.>.>.,.>.>.7.7.y.x.x.x. .} ",
").R R R R [ [ >.>.>.5._ I T } _ _ [ 5.9.,.Y u s 3.*.,.>.>.&.&.,.,.>.5.5.5.q.q.q.q.q.q...} | 5.b b.,.>.} >.:.[ >.7.7.q.q.5.q. .] ",
").R R R R } } 5.,.y.>._ I I >.Y T [ :.>.9.,.z s ,.,.,.>.,.,.,.>.>.} 5.5.5.q.q.q...5.| | >.| >.k b.7.[ R [ R R >.>.5.q.y.7.5.[ U ",
")._ _ R } } } 5.7.7.>.&.$.I R R R R Y :.>.R z s ,.,.,.>.>.&.>._ } } } q.y.q. .} } } } } 5.| } k g.5.>.[ R R [ >.,.5.q.q.5.} [ T ",
").R R R } R } >.>.>.O.&.I O.>.:.Y K L R X.R s + L &.&.>.&.I T _ } } } 5.5. .[ [ [ [ [ R >.q._ k j.,.>.:.[ [ :.9.>.q.q.5.} T T J ",
").T Y I U I :.,.O.R B B Y O.o.Y U o.R R Y R a X h U R O.I I <.>.} T T R ] 5.[ } [ [ R R [ 5.[ s <.y.[ [ } [ [ >.>.<.q.} R U J A ",
").Y R U k U :.O.O.Y U Y R Y Y D D :.Y D Y Y a @ k U L K k I &.T P K b k U U ] [ ] R Y Y R R R s I >.R [ R R Y [ >.,.q.5.R U b k ",
"(.B D k k L L R o.R Y Y Y D L z , Y L s s s - < s x x h s h K B A k k U Y S U [ Y U K K K U U a U :.>.R R Y U Y R R Y R T K b c ",
"!.1 v < v m f h K L B x s s x f > f > + > + < 1 - > a s s > s f a d a a a k K P U A k k g j d > x K Y U K h B C f c c 4 v c 4 4 ",
" X=.) ^ ) =._ R L m C B B B B B B B s > s B C I I I &._ _ e.f.d.<.` <.=.( I P _ } q.q.| } T I Z B , f C ( $.Z 9 M =.<.e.<.=.` ( ",
"oXZ.g.d.,.n.Z.N.:.f V.P.J.A.Z.Z.f.q.>.Y y.Z.C.N.u.r.r.f.b.Z.Z.Z.Z.B.C.<.c B.P.I.J.J.n.b.n.B.k.3.I B L 3.<._ Z E ( m.n.C.C.n.a.p.",
" X,.( _ &.>.5.>.D s r.u.,.y.v.w.<.y.>.>.y.5.[ >.R >.>.>.>.| } [ R T ] U d Z.U.B.} } } q.<.<.*.*.e.<.R 5.>.U b B H } | e.e.` ` %.",
" X,.( I >.>.,.R x a ,.>.>.,.w.y.,.:.:.R <.,.:.>.>.>.>.>._ } } } } Y >.U b D.D.| } 5.,.7.<.&.>.<.d.<.&.<.<.&.b s x >.5.q.q.<.( =.",
" X,.$.,.7.9.R R x , X.:.>.,.>.9.R U ,.,.3.3.,.>.>.} >.5.} } 5.5.>.} c.} P Z. .y.q.5.e.,.,.>.q.q.e.<.&.=.<.<.I > k 5.y.q.5.q._ _ ",
" X,.$.,.9.,.R &.x , &.O.O.R ,.y.,.b.w.r.r.e.y.q.4.5.5.} >.>.} >.[ <.b.} P C.q.5.| q.y.e.3.e.q.q.>._ &.=.<.<.I > B 7.z.z.7.>.>._ ",
" X>.O.,.9.,.I X.l , &.R >.R 5.,.<.y.y.e.3.q.7.9.q.q.>.>.[ [ R R [ q.x.K P b.5.5.} q.y.y.e.d.d.| <.&.<.=.<.<.P > B 7.z.z.q.>.5.5.",
" X>.>.7.9.>.I I l , >.[ :.[ 5.,.7.9.y.3.3.7.4.] U [ [ :.[ Y Y R :.q.5.b b e.5.q.| q.y.e.<.e.} } <.=.>.<.<.>.B   P y.x.q.5.4.} } ",
" X>.,.>.,.&.$.I , + :.[ [ [ 5.<.,.,.3.<.<.} } T J [ [ [ R R R R 7.y.[ b C |  .q.q.y.y.q.<.e.| <.<.=.&.>.<.,.B > >.y.q.q.5.4.5.5.",
"`.&.>.>.&.I P I - O R [ >._ =.=.>.5.7.,.>.[  .} [ [ [ [ [ >.5.5.q.y.R f b | q.q.y.y.y.,.<.3.<.5.<.&.&.&.,.,.B > } q.7.7.5.5.5.5.",
").I I _ I P b m & & B Y R I @.%._ 5.7.>.[ [ [ [ ] T T [ 5.5.5.<.q.q.T < c | q.e.y.y.y.,.3.y.y.,.>.>._ >.,.,.B < R  .5.q.5.5.5.5.",
"(.B m Z B c 1 4 $ $ , D U Z ~ Q P [ ] R U ] ] P P P P P T >.R T Y [ P ; c R 5.5.5.9.>.>.} :.>.>.>.} ,.} R R k , K ] R } [ R R R ",
"!.4 e #.r 7 & # # $ - f s , 9 q 3 f s s f c M M 4 4 v c f f m 1 < > < 3 9 K U x h D B B K K K k k x x l f , 8 4 1 U A j b P L B ",
"!.e 5 5 9 M M 8 % ; l x f , ; & 1 f l f c M M 5 4 4 - - O > , > , > < ; & < g > : 6 8 B K K K k k s f l s 1 1 : f B c f d c 3 < ",
"!.< n m.m.Z.Z.b.T u.A.v.y.5.} K U 5.q.q.M.J.P.J.>.> < - , k g g h k k s @ < g > : 9 <.P.A.N.N.y.N.c.C.Z.C.y.e.d.m.g.` ! ! M M ( ",
"/.s | G...| T } U >.>.R _ ( P C T <.y.y.y.x.y.x.R a a < B b A g h x D S k B k a   _ C.H.y.>.:.R >.,.>.9.4.[ 4.q.| / ! Z P c c P ",
"R.a <.q.5.} 5.>.:.7.,.R ( ) P P Y ,.7.7.>.4.4.>.Y y f m C L U D k x k k Y L B s + e.b.>.,.>.O.R R :.:.o.Y R :.R I ( ~ Z P c c H ",
"^.a 5.5.} } >.R 9.u.,.( ~ ~ ~ P T q.7.[ ] } >.[ K g k M m B U U k K K Y >.R I h + y.y.>.>.>.:.R :.>.:.R R R :.R I ( C E / n c k ",
"^.a >.[ [ } >.&.>.w.,.I Z ~ ~ ( } q.>.J U R U R D g h c f U R >.R R O.3.&.I I K > O.9.:.>.>.>.O.:.>.>.:.O.O.R R I I C C / b d a ",
"^.+ I [ O.R &.,.,.w.*.I Z Z ( <.<.q.} U U [ ] [ U i A K K R y.N.N.u.9.,.>.>.>.I + L y.9.9.9.>.>.>.,.>.>.>.>.O.[ R R Y B U U K K ",
"^.+ P [ R R _ &.,.y.*.( Z ~ _ <.y.y.5.[ ] ] ] [ U i D I R 5.b.y.y.y.:.>.:.9.9.o.a L 9.,.y.y.>.>.>.,.,.>.>.9.>.[ T T U K [ R U A ",
"^.> P [ R R T R ,.q.&.=.( _ &.5.y.q.>.4.>.R [ R D g K R } e.b.b.c.y.:.>.:.>.>.O.a Y 9.9.9.7.>.>.,.>.>.>.:.:.>.[ P U [ R R R U K ",
"R.a Y 4.4.[ R >.>.R I T &.,.,.y.c.y.[ >.7.[ T ' S g H T _ } q.y.y.u.9.:.>.>.>.:.s U ,.,.9.7.,.,.,.,.>.R R >.5.>.U T [ R R R R U ",
"T.+ T q.[ R [ } R :.R H R y.9.c.c.5.T 5.7.} ' D k a A U K U [ >.,.9.9.>.>.>.:.>.s z Y :.>.>.,.,.>.I O.R R >.>.[ U R ] R T U ] U ",
"T.> P 5.[ [ [ [ U Y I B P T >.y.y.T U y.y. .' h s   k A s k &.&.,.z.c.y.,.:.>.>.1 l F ' R >.,.&.:.R R R U U k h U Y Y K B k U J ",
"Q.& 4 T Y U U B 4 M 3 ; - < f I I B B P B b f - 3 ; < d a > 1 f B K k k s s h f 2 2 z k f x B c B B k a a g g y a s s > > > + > ",
"/.1 , k B B C r 0 0 w q 7 3 & : 3 3 3 M M E M 5 e E 4 M ~ 9 M M c 4 c B b k k c M 8 M m C k 4 ; < f @ @ a @ > > > > > > > > , 1 ",
"#X}. X].). X}._.~.E.~.{.{.}.}.).(.(.(.}..X.X|.|.{.|.`.|.}.).OXOXXX|.XXoXoXoX.X.X|.|.XXXXXX X}.}.`./.T.W.W.W.Q.Q././././.(.).'. X"
};
